<svg width="276" height="51" viewBox="0 0 276 51" fill="none" xmlns="http://www.w3.org/2000/svg">
<path d="M16.6744 40.955C14.5579 40.955 12.6022 40.6067 10.8072 39.9101C9.03906 39.1868 7.49859 38.1821 6.18585 36.8962C4.8731 35.5834 3.85506 34.043 3.13171 32.2748C2.43515 30.4798 2.08687 28.5107 2.08687 26.3674C2.08687 24.2778 2.46194 22.3488 3.21208 20.5806C3.96222 18.8124 4.99366 17.2854 6.30641 15.9994C7.64594 14.6867 9.2132 13.6686 11.0082 12.9453C12.8299 12.2219 14.8125 11.8603 16.9557 11.8603C18.2952 11.8603 19.608 12.0344 20.8939 12.3827C22.1799 12.731 23.3721 13.2534 24.4705 13.9499C25.5957 14.6197 26.5602 15.4234 27.3639 16.3611L23.1845 21.1432C22.6219 20.5538 22.0192 20.0448 21.3762 19.6162C20.76 19.1607 20.0768 18.8124 19.3267 18.5713C18.5765 18.3302 17.7728 18.2097 16.9155 18.2097C15.8439 18.2097 14.8258 18.4106 13.8614 18.8124C12.9237 19.1875 12.0932 19.7367 11.3698 20.4601C10.6733 21.1566 10.1241 22.0139 9.72222 23.032C9.32036 24.05 9.11943 25.1886 9.11943 26.4478C9.11943 27.6802 9.32036 28.8054 9.72222 29.8234C10.1241 30.8147 10.6867 31.672 11.41 32.3953C12.1334 33.1187 13.0041 33.6679 14.0221 34.043C15.067 34.418 16.219 34.6056 17.4781 34.6056C18.3354 34.6056 19.1525 34.485 19.9295 34.2439C20.7064 34.0028 21.4164 33.6813 22.0593 33.2794C22.7291 32.8508 23.3185 32.3685 23.8275 31.8327L27.1228 37.0569C26.453 37.8071 25.5555 38.4768 24.4303 39.0662C23.3319 39.6556 22.0995 40.1244 20.7332 40.4727C19.3937 40.7942 18.0407 40.955 16.6744 40.955ZM49.9745 40.5531V19.2143H56.0828L56.2837 23.0722L55.4398 23.1124C55.7613 22.4158 56.1632 21.7996 56.6454 21.2638C57.1544 20.728 57.717 20.2859 58.3332 19.9377C58.9762 19.5626 59.6326 19.2813 60.3023 19.0938C60.9989 18.9062 61.6954 18.8124 62.392 18.8124C63.4368 18.8124 64.3879 18.9732 65.2452 19.2947C66.1025 19.6162 66.8527 20.1386 67.4956 20.8619C68.1386 21.5585 68.6476 22.5096 69.0227 23.7151L68.018 23.6348L68.3395 22.9918C68.6878 22.3488 69.1299 21.7728 69.6657 21.2638C70.2283 20.728 70.8445 20.2859 71.5142 19.9377C72.184 19.5626 72.8806 19.2813 73.6039 19.0938C74.3273 18.9062 75.0238 18.8124 75.6936 18.8124C77.3814 18.8124 78.7879 19.1473 79.9131 19.8171C81.0383 20.4601 81.8822 21.4379 82.4448 22.7507C83.0342 24.0634 83.3289 25.6575 83.3289 27.5328V40.5531H76.859V28.0552C76.859 27.1979 76.7384 26.488 76.4973 25.9254C76.2562 25.3628 75.8945 24.9475 75.4123 24.6796C74.9568 24.3849 74.3808 24.2376 73.6843 24.2376C73.1217 24.2376 72.5993 24.3313 72.117 24.5189C71.6616 24.7064 71.2597 24.9609 70.9114 25.2824C70.59 25.6039 70.3354 25.979 70.1479 26.4076C69.9604 26.8363 69.8666 27.3185 69.8666 27.8543V40.5531H63.3967V28.0151C63.3967 27.2113 63.2761 26.5282 63.035 25.9656C62.7939 25.403 62.4322 24.9743 61.95 24.6796C61.4677 24.3849 60.9051 24.2376 60.2621 24.2376C59.6995 24.2376 59.1771 24.3313 58.6949 24.5189C58.2394 24.7064 57.8376 24.9609 57.4893 25.2824C57.1678 25.6039 56.9133 25.979 56.7258 26.4076C56.5382 26.8363 56.4445 27.3051 56.4445 27.8141V40.5531H49.9745ZM88.6702 49.394V19.2143H94.7785L95.0196 23.9964L93.814 23.6348C94.0016 22.7507 94.457 21.947 95.1804 21.2236C95.9037 20.5003 96.8146 19.9243 97.913 19.4956C99.0382 19.0402 100.217 18.8124 101.449 18.8124C103.271 18.8124 104.892 19.2947 106.312 20.2591C107.732 21.1968 108.844 22.4962 109.647 24.1572C110.478 25.7914 110.893 27.6936 110.893 29.8636C110.893 32.0069 110.478 33.909 109.647 35.57C108.844 37.2311 107.718 38.5438 106.272 39.5083C104.852 40.4459 103.218 40.9148 101.369 40.9148C100.163 40.9148 99.0114 40.6871 97.913 40.2316C96.8146 39.7762 95.8903 39.16 95.1402 38.3831C94.39 37.6061 93.8944 36.7622 93.6533 35.8513L95.1402 35.2887V49.394H88.6702ZM99.8018 35.4897C100.766 35.4897 101.61 35.2619 102.333 34.8065C103.057 34.3243 103.619 33.6679 104.021 32.8374C104.423 32.0069 104.624 31.0156 104.624 29.8636C104.624 28.7384 104.423 27.7605 104.021 26.93C103.619 26.0727 103.057 25.4164 102.333 24.9609C101.637 24.4787 100.793 24.2376 99.8018 24.2376C98.8105 24.2376 97.9532 24.4653 97.2299 24.9207C96.5065 25.3762 95.9439 26.0325 95.542 26.8898C95.1402 27.7471 94.9392 28.7384 94.9392 29.8636C94.9392 31.0156 95.1402 32.0069 95.542 32.8374C95.9439 33.6679 96.5065 34.3243 97.2299 34.8065C97.9532 35.2619 98.8105 35.4897 99.8018 35.4897ZM122.434 40.9951C120.853 40.9951 119.5 40.6603 118.375 39.9905C117.277 39.2939 116.419 38.3027 115.803 37.0167C115.214 35.7308 114.919 34.1903 114.919 32.3953V19.2143H121.389V31.5112C121.389 32.3685 121.523 33.1053 121.791 33.7215C122.059 34.3377 122.461 34.8199 122.996 35.1682C123.532 35.4897 124.175 35.6504 124.925 35.6504C125.488 35.6504 125.997 35.5566 126.452 35.3691C126.935 35.1816 127.336 34.9271 127.658 34.6056C128.006 34.2573 128.274 33.8688 128.462 33.4402C128.649 32.9847 128.743 32.4891 128.743 31.9533V19.2143H135.213V40.5531H129.145L128.863 36.1728L130.069 35.6906C129.748 36.7086 129.212 37.6195 128.462 38.4232C127.711 39.2002 126.814 39.8298 125.769 40.312C124.724 40.7674 123.613 40.9951 122.434 40.9951ZM148.137 40.955C146.047 40.955 144.199 40.6201 142.591 39.9503C141.01 39.2805 139.751 38.3831 138.814 37.2578L142.712 33.8822C143.542 34.7127 144.48 35.3289 145.525 35.7308C146.57 36.1058 147.561 36.2934 148.498 36.2934C148.874 36.2934 149.208 36.2532 149.503 36.1728C149.798 36.0924 150.039 35.9853 150.226 35.8513C150.441 35.6906 150.602 35.5164 150.709 35.3289C150.816 35.1146 150.869 34.8735 150.869 34.6056C150.869 34.0698 150.628 33.6545 150.146 33.3598C149.905 33.2258 149.503 33.0651 148.941 32.8776C148.378 32.69 147.655 32.4757 146.77 32.2346C145.511 31.9131 144.413 31.538 143.475 31.1094C142.564 30.6539 141.814 30.1315 141.225 29.5421C140.689 28.9795 140.274 28.3633 139.979 27.6936C139.684 26.997 139.537 26.2201 139.537 25.3628C139.537 24.3715 139.765 23.474 140.22 22.6703C140.702 21.8666 141.332 21.17 142.109 20.5806C142.913 19.9912 143.823 19.5492 144.842 19.2545C145.886 18.933 146.958 18.7723 148.056 18.7723C149.235 18.7723 150.36 18.9062 151.432 19.1741C152.504 19.442 153.495 19.8171 154.406 20.2993C155.343 20.7816 156.174 21.3576 156.897 22.0273L153.522 25.8048C153.039 25.3494 152.49 24.9475 151.874 24.5992C151.285 24.2242 150.669 23.9295 150.026 23.7151C149.383 23.5008 148.793 23.3937 148.257 23.3937C147.855 23.3937 147.494 23.4338 147.172 23.5142C146.878 23.5678 146.623 23.675 146.409 23.8357C146.194 23.9697 146.034 24.1438 145.927 24.3581C145.819 24.5457 145.766 24.7734 145.766 25.0413C145.766 25.3092 145.833 25.5637 145.967 25.8048C146.127 26.0459 146.342 26.2469 146.61 26.4076C146.878 26.5684 147.306 26.7559 147.896 26.9702C148.485 27.1578 149.289 27.3989 150.307 27.6936C151.566 28.0418 152.651 28.4303 153.562 28.859C154.473 29.2876 155.196 29.7966 155.732 30.386C156.161 30.8415 156.482 31.3773 156.696 31.9935C156.911 32.5829 157.018 33.2258 157.018 33.9224C157.018 35.2887 156.629 36.5077 155.853 37.5793C155.102 38.6242 154.058 39.4547 152.718 40.0709C151.378 40.6603 149.851 40.955 148.137 40.955ZM174.396 40.5531V12.4229H186.813C188.742 12.4229 190.376 12.7042 191.716 13.2668C193.055 13.8026 194.06 14.5929 194.73 15.6378C195.426 16.6558 195.775 17.8882 195.775 19.3349C195.775 20.9423 195.373 22.2952 194.569 23.3937C193.792 24.4921 192.653 25.2288 191.153 25.6039L191.073 24.8404C192.332 25.1083 193.417 25.5771 194.328 26.2469C195.265 26.9166 195.989 27.7471 196.498 28.7384C197.007 29.7029 197.261 30.8013 197.261 32.0337C197.261 33.4536 197.02 34.6993 196.538 35.771C196.056 36.8158 195.359 37.6999 194.448 38.4232C193.537 39.1466 192.466 39.6824 191.233 40.0307C190.028 40.379 188.688 40.5531 187.215 40.5531H174.396ZM180.825 34.8467H186.974C187.724 34.8467 188.353 34.7261 188.863 34.485C189.398 34.2439 189.814 33.8956 190.108 33.4402C190.403 32.9579 190.55 32.3819 190.55 31.7122C190.55 31.096 190.39 30.5736 190.068 30.1449C189.773 29.7163 189.345 29.3948 188.782 29.1804C188.22 28.9393 187.55 28.8188 186.773 28.8188H180.825V34.8467ZM180.825 23.7151H185.849C186.545 23.7151 187.135 23.608 187.617 23.3937C188.126 23.1525 188.501 22.8311 188.742 22.4292C189.01 22.0005 189.144 21.4915 189.144 20.9021C189.144 20.0448 188.849 19.3751 188.26 18.8928C187.67 18.3838 186.786 18.1293 185.607 18.1293H180.825V23.7151ZM211.897 40.955C209.673 40.955 207.691 40.4727 205.949 39.5083C204.235 38.5438 202.869 37.2311 201.85 35.57C200.859 33.909 200.364 32.0069 200.364 29.8636C200.364 27.7204 200.859 25.8182 201.85 24.1572C202.869 22.4962 204.235 21.1834 205.949 20.219C207.691 19.2545 209.673 18.7723 211.897 18.7723C214.121 18.7723 216.09 19.2545 217.804 20.219C219.546 21.1834 220.912 22.4962 221.903 24.1572C222.895 25.8182 223.39 27.7204 223.39 29.8636C223.39 32.0069 222.895 33.909 221.903 35.57C220.912 37.2311 219.546 38.5438 217.804 39.5083C216.09 40.4727 214.121 40.955 211.897 40.955ZM211.897 35.4093C212.861 35.4093 213.719 35.1682 214.469 34.6859C215.219 34.2037 215.808 33.5473 216.237 32.7168C216.666 31.8863 216.867 30.9352 216.84 29.8636C216.867 28.792 216.666 27.8409 216.237 27.0104C215.808 26.1531 215.219 25.4833 214.469 25.0011C213.719 24.5189 212.861 24.2778 211.897 24.2778C210.933 24.2778 210.062 24.5189 209.285 25.0011C208.535 25.4833 207.945 26.1531 207.517 27.0104C207.088 27.8409 206.887 28.792 206.914 29.8636C206.887 30.9352 207.088 31.8863 207.517 32.7168C207.945 33.5473 208.535 34.2037 209.285 34.6859C210.062 35.1682 210.933 35.4093 211.897 35.4093ZM237.641 40.955C235.418 40.955 233.435 40.4727 231.694 39.5083C229.979 38.5438 228.613 37.2311 227.595 35.57C226.603 33.909 226.108 32.0069 226.108 29.8636C226.108 27.7204 226.603 25.8182 227.595 24.1572C228.613 22.4962 229.979 21.1834 231.694 20.219C233.435 19.2545 235.418 18.7723 237.641 18.7723C239.865 18.7723 241.834 19.2545 243.549 20.219C245.29 21.1834 246.656 22.4962 247.647 24.1572C248.639 25.8182 249.134 27.7204 249.134 29.8636C249.134 32.0069 248.639 33.909 247.647 35.57C246.656 37.2311 245.29 38.5438 243.549 39.5083C241.834 40.4727 239.865 40.955 237.641 40.955ZM237.641 35.4093C238.606 35.4093 239.463 35.1682 240.213 34.6859C240.963 34.2037 241.553 33.5473 241.981 32.7168C242.41 31.8863 242.611 30.9352 242.584 29.8636C242.611 28.792 242.41 27.8409 241.981 27.0104C241.553 26.1531 240.963 25.4833 240.213 25.0011C239.463 24.5189 238.606 24.2778 237.641 24.2778C236.677 24.2778 235.806 24.5189 235.029 25.0011C234.279 25.4833 233.69 26.1531 233.261 27.0104C232.832 27.8409 232.631 28.792 232.658 29.8636C232.631 30.9352 232.832 31.8863 233.261 32.7168C233.69 33.5473 234.279 34.2037 235.029 34.6859C235.806 35.1682 236.677 35.4093 237.641 35.4093ZM259.527 34.2841L257.157 29.4618L267.123 19.2143H275.602L259.527 34.2841ZM253.339 40.5531V10.8154H259.769V40.5531H253.339ZM267.806 40.5531L260.291 30.8281L264.832 27.2917L275.401 40.5531H267.806Z" fill="#1F1F1F"/>
<mask id="mask0_29_42854" style="mask-type:luminance" maskUnits="userSpaceOnUse" x="25" y="19" width="21" height="9">
<path d="M42.4822 19.6999C42.4822 19.6999 36.512 26.4227 29.0862 20.2663C27.4423 22.076 25.8572 23.8213 25.8572 23.8213C25.8572 23.8213 34.6449 32.9295 45.9602 22.9738L42.483 19.6992L42.4822 19.6999Z" fill="white"/>
</mask>
<g mask="url(#mask0_29_42854)">
<path d="M413.794 -145.213H-267.826V201.554H413.794V-145.213Z" fill="#23B8FC"/>
</g>
<path d="M37.5079 45.1803C37.5079 45.1803 37.4278 29.7798 45.9602 22.9753C44.2699 21.3832 43.3376 20.5428 42.483 19.7007C37.2071 24.9641 32.9656 31.595 32.4723 45.1803C36.6243 45.174 37.5087 45.1803 37.5087 45.1803H37.5079Z" fill="#23B8FC"/>
<mask id="mask1_29_42854" style="mask-type:luminance" maskUnits="userSpaceOnUse" x="32" y="30" width="16" height="16">
<path d="M37.4859 45.1803C37.4859 45.1803 37.3846 36.12 47.0544 35.5057C47.0544 33.041 47.0544 30.6642 47.0544 30.6642C47.0544 30.6642 34.381 30.0531 32.6931 45.1803H37.4859Z" fill="white"/>
</mask>
<g mask="url(#mask1_29_42854)">
<path d="M413.794 -145.213H-267.826V201.554H413.794V-145.213Z" fill="#23B8FC"/>
</g>
</svg>
